<?xml version="1.0"?>
<svg xmlns="http://www.w3.org/2000/svg" xmlns:xlink="http://www.w3.org/1999/xlink" xmlns:svgjs="http://svgjs.com/svgjs" version="1.1" width="512" height="512" x="0" y="0" viewBox="0 0 512 512" style="enable-background:new 0 0 512 512" xml:space="preserve" class=""><g>
<g xmlns="http://www.w3.org/2000/svg">
	<path style="" d="M76,451c-8.291,0-15-6.709-15-15v-60c0-8.291,6.709-15,15-15s15,6.709,15,15v60   C91,444.291,84.291,451,76,451z" fill="#01c2cb" data-original="#3aaaff" class=""/>
	<path style="" d="M166,512c-8.291,0-15-6.709-15-15v-61c0-8.291,6.709-15,15-15s15,6.709,15,15v61   C181,505.291,174.291,512,166,512z" fill="#01c2cb" data-original="#3aaaff" class=""/>
	<path style="" d="M166,391c-8.291,0-15-6.709-15-15v-60c0-8.291,6.709-15,15-15s15,6.709,15,15v60   C181,384.291,174.291,391,166,391z" fill="#01c2cb" data-original="#3aaaff" class=""/>
	<path style="" d="M271,376v60c0,8.401-6.599,15-15,15s-15-6.599-15-15v-60c0-8.401,6.599-15,15-15   S271,367.599,271,376z" fill="#01c2cb" data-original="#3aaaff" class=""/>
</g>
<g xmlns="http://www.w3.org/2000/svg">
	<path style="" d="M346,512c-8.291,0-15-6.709-15-15v-61c0-8.291,6.709-15,15-15s15,6.709,15,15v61   C361,505.291,354.291,512,346,512z" fill="#01c2cb" data-original="#008adf" class=""/>
	<path style="" d="M436,451c-8.291,0-15-6.709-15-15v-60c0-8.291,6.709-15,15-15s15,6.709,15,15v60   C451,444.291,444.291,451,436,451z" fill="#01c2cb" data-original="#008adf" class=""/>
	<path style="" d="M346,391c-8.291,0-15-6.709-15-15v-60c0-8.291,6.709-15,15-15s15,6.709,15,15v60   C361,384.291,354.291,391,346,391z" fill="#01c2cb" data-original="#008adf" class=""/>
	<path style="" d="M271,376v60c0,8.401-6.599,15-15,15v-90C264.401,361,271,367.599,271,376z" fill="#01c2cb" data-original="#008adf" class=""/>
</g>
<path xmlns="http://www.w3.org/2000/svg" style="" d="M364.3,93.3c-19.2-47.1-59.7-80.4-108.3-90C246.4,0.901,236.201,0,226,0C143.2,0,76,67.2,76,150  v1.199C33.401,158.401,0,196.601,0,241c0,49.501,41.499,90,91,90h300c66.301,0,121-53.699,121-120C512,136,440.799,74.7,364.3,93.3z  " fill="#14243f" data-original="#ede9e8" class=""/>
<path xmlns="http://www.w3.org/2000/svg" style="" d="M512,211c0,66.301-54.699,120-121,120H256V3.3c48.6,9.6,89.099,42.9,108.3,90  C440.799,74.7,512,136,512,211z" fill="#14243f" data-original="#dfd7d5" class=""/>
<g xmlns="http://www.w3.org/2000/svg">
</g>
<g xmlns="http://www.w3.org/2000/svg">
</g>
<g xmlns="http://www.w3.org/2000/svg">
</g>
<g xmlns="http://www.w3.org/2000/svg">
</g>
<g xmlns="http://www.w3.org/2000/svg">
</g>
<g xmlns="http://www.w3.org/2000/svg">
</g>
<g xmlns="http://www.w3.org/2000/svg">
</g>
<g xmlns="http://www.w3.org/2000/svg">
</g>
<g xmlns="http://www.w3.org/2000/svg">
</g>
<g xmlns="http://www.w3.org/2000/svg">
</g>
<g xmlns="http://www.w3.org/2000/svg">
</g>
<g xmlns="http://www.w3.org/2000/svg">
</g>
<g xmlns="http://www.w3.org/2000/svg">
</g>
<g xmlns="http://www.w3.org/2000/svg">
</g>
<g xmlns="http://www.w3.org/2000/svg">
</g>
</g></svg>
